<svg height="718" width="720" xmlns="http://www.w3.org/2000/svg">
<rect height="718" fill="#555" width="720"></rect>
<text fill="#7f7" font-family="Courier New" font-size="12" xml:space="preserve">
<tspan x="10" y="26">5 megabytes installed</tspan>
<tspan x="10" y="42"></tspan>
<tspan x="10" y="58">node_modules</tspan>
<tspan x="10" y="74">└─┬ flatiron@0.4.3 </tspan>
<tspan x="10" y="90">  ├─┬ broadway@0.3.6 </tspan>
<tspan x="10" y="106">  │ ├─┬ cliff@0.1.9 </tspan>
<tspan x="10" y="122">  │ │ ├── colors@0.6.2 </tspan>
<tspan x="10" y="138">  │ │ └── eyes@0.1.8 </tspan>
<tspan x="10" y="154">  │ ├── eventemitter2@0.4.14 </tspan>
<tspan x="10" y="170">  │ ├─┬ nconf@0.6.9 </tspan>
<tspan x="10" y="186">  │ │ ├── async@0.2.9 </tspan>
<tspan x="10" y="202">  │ │ └── ini@1.3.4 </tspan>
<tspan x="10" y="218">  │ ├─┬ utile@0.2.1 </tspan>
<tspan x="10" y="234">  │ │ ├── async@0.2.10 </tspan>
<tspan x="10" y="250">  │ │ ├── deep-equal@1.0.1 </tspan>
<tspan x="10" y="266">  │ │ ├── i@0.3.5 </tspan>
<tspan x="10" y="282">  │ │ ├─┬ mkdirp@0.5.1 </tspan>
<tspan x="10" y="298">  │ │ │ └── minimist@0.0.8 </tspan>
<tspan x="10" y="314">  │ │ ├── ncp@0.4.2 </tspan>
<tspan x="10" y="330">  │ │ └─┬ rimraf@2.6.1 </tspan>
<tspan x="10" y="346">  │ │   └─┬ glob@7.1.1 </tspan>
<tspan x="10" y="362">  │ │     ├── fs.realpath@1.0.0 </tspan>
<tspan x="10" y="378">  │ │     ├─┬ inflight@1.0.6 </tspan>
<tspan x="10" y="394">  │ │     │ └── wrappy@1.0.2 </tspan>
<tspan x="10" y="410">  │ │     ├── inherits@2.0.3 </tspan>
<tspan x="10" y="426">  │ │     ├─┬ minimatch@3.0.3 </tspan>
<tspan x="10" y="442">  │ │     │ └─┬ brace-expansion@1.1.7 </tspan>
<tspan x="10" y="458">  │ │     │   ├── balanced-match@0.4.2 </tspan>
<tspan x="10" y="474">  │ │     │   └── concat-map@0.0.1 </tspan>
<tspan x="10" y="490">  │ │     ├── once@1.4.0 </tspan>
<tspan x="10" y="506">  │ │     └── path-is-absolute@1.0.1 </tspan>
<tspan x="10" y="522">  │ └─┬ winston@0.8.0 </tspan>
<tspan x="10" y="538">  │   ├── cycle@1.0.3 </tspan>
<tspan x="10" y="554">  │   └── stack-trace@0.0.9 </tspan>
<tspan x="10" y="570">  ├── director@1.2.7 </tspan>
<tspan x="10" y="586">  ├─┬ optimist@0.6.0 </tspan>
<tspan x="10" y="602">  │ ├── minimist@0.0.10 </tspan>
<tspan x="10" y="618">  │ └── wordwrap@0.0.3 </tspan>
<tspan x="10" y="634">  └─┬ prompt@0.2.14 </tspan>
<tspan x="10" y="650">    ├── pkginfo@0.3.1 </tspan>
<tspan x="10" y="666">    ├─┬ read@1.0.7 </tspan>
<tspan x="10" y="682">    │ └── mute-stream@0.0.7 </tspan>
<tspan x="10" y="698">    └── revalidator@0.1.8</tspan>
</text>
</svg>
